<svg width="18" height="17" viewBox="0 0 18 17" fill="none" xmlns="http://www.w3.org/2000/svg">
    <path d="M9.73619 13.6723C9.31747 13.4379 8.80706 13.4379 8.38835 13.6723L4.8397 15.6587C4.49725 15.8504 4.0875 15.5527 4.16397 15.1678L4.95642 11.1788C5.04992 10.7082 4.89217 10.2228 4.53986 9.89698L1.55366 7.13569C1.26551 6.86925 1.42201 6.38753 1.81174 6.34131L5.85052 5.86231C6.32698 5.8058 6.73988 5.50582 6.94086 5.07014L8.64465 1.37675C8.80904 1.02041 9.3155 1.02041 9.47988 1.37675L11.1837 5.07014C11.3847 5.50582 11.7975 5.8058 12.274 5.86231L16.3128 6.34131C16.7025 6.38753 16.859 6.86924 16.5709 7.13569L13.5847 9.89698C13.2324 10.2228 13.0746 10.7082 13.1681 11.1788L13.9606 15.1678C14.037 15.5527 13.6273 15.8504 13.2848 15.6587L9.73619 13.6723Z" fill="none" stroke="#E30062" stroke-width="0.919817"/>
</svg>